<svg width="15" height="18" viewBox="0 0 15 18" fill="none" xmlns="http://www.w3.org/2000/svg">
<path d="M7.11507 0C5.24906 0.00221173 3.46011 0.747945 2.14064 2.07362C0.821167 3.39929 0.0789224 5.19665 0.0767211 7.07143C0.0744861 8.6035 0.572592 10.094 1.49463 11.3143C1.49463 11.3143 1.68658 11.5682 1.71794 11.6049L7.11507 18L12.5148 11.6016C12.5429 11.5676 12.7355 11.3143 12.7355 11.3143L12.7362 11.3124C13.6577 10.0926 14.1556 8.6028 14.1534 7.07143C14.1512 5.19665 13.409 3.39929 12.0895 2.07362C10.77 0.747945 8.98108 0.00221173 7.11507 0ZM7.11507 9.64286C6.60887 9.64286 6.11404 9.49205 5.69314 9.20949C5.27225 8.92694 4.94421 8.52534 4.75049 8.05547C4.55678 7.5856 4.50609 7.06858 4.60485 6.56977C4.7036 6.07096 4.94736 5.61277 5.3053 5.25315C5.66324 4.89353 6.11928 4.64863 6.61576 4.54941C7.11223 4.45019 7.62684 4.50111 8.09451 4.69574C8.56218 4.89036 8.9619 5.21995 9.24313 5.64282C9.52436 6.06569 9.67447 6.56285 9.67447 7.07143C9.67362 7.75315 9.4037 8.40671 8.9239 8.88876C8.44411 9.37082 7.7936 9.64201 7.11507 9.64286Z" fill="#252525"/>
</svg>
