<svg width="29" height="30" viewBox="0 0 29 30" fill="none" xmlns="http://www.w3.org/2000/svg">
<path d="M14.949 1.33984C10.8495 1.42909 7.91094 4.05935 7.91094 7.58997C7.91094 13.0572 10.3043 16.012 13.0761 17.6073C11.7568 18.056 10.3593 18.4653 8.79926 18.829C6.87083 19.2786 5.04233 20.098 3.66309 21.2339C2.28385 22.3698 1.34375 23.8566 1.34375 25.5625V28.9375C1.34379 29.2481 1.6096 29.5 1.9375 29.5H27.4688C27.7967 29.5 28.0625 29.2481 28.0625 28.9375V26.6875C28.0625 24.516 27.1881 22.7619 25.88 21.4679C24.5719 20.1738 22.848 19.3234 21.1056 18.8356C19.9305 18.5064 17.9866 18.3303 15.9892 17.6842C16.8071 17.2886 17.5808 16.8564 18.2633 16.3417C20.6043 14.5761 22.0137 11.9755 22.0137 8.16016C22.0167 7.9573 21.9042 7.76861 21.7192 7.66634C21.5343 7.56408 21.3055 7.56408 21.1206 7.66634C20.9356 7.76861 20.8232 7.9573 20.8262 8.16016C20.8262 11.7231 19.6139 13.886 17.5246 15.4617C16.6832 16.0963 15.6512 16.6108 14.5269 17.0767C14.3413 16.9909 14.1508 16.9399 13.9679 16.8426C11.3551 15.4531 9.09845 12.9586 9.09845 7.58996C9.09845 4.63046 11.3765 2.54322 14.9768 2.46484C18.5492 2.38685 20.2944 4.0152 20.7624 5.37402C20.4253 5.58075 19.843 5.90151 18.6912 6.26941C17.0287 6.80044 14.5214 7.25022 11.158 6.88355C10.9441 6.85452 10.7305 6.93785 10.6002 7.10113C10.4698 7.26442 10.4434 7.48188 10.5312 7.66894C10.619 7.85599 10.8071 7.98312 11.0223 8.00086C14.5625 8.38681 17.2567 7.91443 19.0704 7.33509C20.8842 6.75575 21.8606 6.0409 21.8606 6.0409C22.0351 5.9112 22.1187 5.70021 22.0775 5.49378C21.6679 3.42401 19.235 1.24628 14.949 1.33984ZM14.5419 18.3104C17.1149 19.3721 19.7174 19.6198 20.7694 19.9144C22.3543 20.3581 23.8962 21.1321 25.0219 22.2457C26.1475 23.3593 26.875 24.7961 26.875 26.6875V28.375H2.53125V25.5625C2.53125 24.2449 3.24344 23.0696 4.44122 22.0831C5.63901 21.0967 7.31217 20.3337 9.08222 19.921C11.0617 19.4596 12.8915 18.95 14.5419 18.3104Z" fill="#3C7178" stroke="#3C7178"/>
</svg>
