<svg width="29" height="37" viewBox="0 0 29 37" fill="none" xmlns="http://www.w3.org/2000/svg">
<rect x="0.747955" width="27.8192" height="36.1808" rx="10" fill="#3C7178"/>
<path d="M11.2706 27.1626H10.6846C10.1991 27.1626 9.8056 26.7712 9.8056 26.2884V13.1754H8.04762C7.26506 13.1754 6.8741 12.232 7.42607 11.683L10.356 8.76905C10.6993 8.42768 11.2559 8.42768 11.5991 8.76905L14.5291 11.683C15.0789 12.23 14.6934 13.1754 13.9075 13.1754H12.1496V26.2884C12.1496 26.7712 11.756 27.1626 11.2706 27.1626ZM16.8375 9.38722V22.5002H15.0795C14.2989 22.5002 13.9046 23.4422 14.458 23.9926L17.3879 26.9066C17.7312 27.2479 18.2878 27.2479 18.631 26.9066L21.561 23.9926C22.1113 23.4452 21.7246 22.5002 20.9395 22.5002H19.1815V9.38722C19.1815 8.90441 18.788 8.51302 18.3025 8.51302H17.7165C17.231 8.51302 16.8375 8.90441 16.8375 9.38722Z" fill="white"/>
</svg>
