<svg width="24" height="24" viewBox="0 0 24 24" fill="none" xmlns="http://www.w3.org/2000/svg">
<path fill-rule="evenodd" clip-rule="evenodd" d="M8.03684 2.43217C8.52912 1.86426 9.13785 1.40895 9.82168 1.09712C10.5055 0.785304 11.2484 0.624284 12 0.624999C13.5832 0.624999 15.0018 1.325 15.9632 2.43217C16.713 2.37863 17.4655 2.4871 18.1697 2.7502C18.8739 3.01331 19.5132 3.4249 20.0442 3.957C20.5761 4.4879 20.9875 5.12702 21.2506 5.83096C21.5137 6.53491 21.6223 7.28722 21.569 8.03683C22.1367 8.52923 22.5918 9.138 22.9034 9.82183C23.215 10.5057 23.3759 11.2485 23.375 12C23.3757 12.7516 23.2147 13.4945 22.9029 14.1783C22.5911 14.8622 22.1357 15.4709 21.5678 15.9632C21.6211 16.7128 21.5125 17.4651 21.2494 18.169C20.9863 18.873 20.5749 19.5121 20.043 20.043C19.5121 20.5749 18.873 20.9863 18.169 21.2494C17.4651 21.5125 16.7128 21.6211 15.9632 21.5678C15.4709 22.1357 14.8622 22.591 14.1783 22.9029C13.4945 23.2147 12.7516 23.3757 12 23.375C11.2484 23.3757 10.5055 23.2147 9.82168 22.9029C9.13785 22.591 8.52912 22.1357 8.03684 21.5678C7.28711 21.6215 6.53461 21.5132 5.83044 21.2503C5.12628 20.9874 4.48693 20.5761 3.95584 20.0442C3.4238 19.5131 3.01226 18.8738 2.74915 18.1697C2.48605 17.4655 2.37754 16.713 2.431 15.9632C1.86332 15.4708 1.40822 14.862 1.0966 14.1782C0.784982 13.4943 0.624144 12.7515 0.625003 12C0.625003 10.4168 1.325 8.99816 2.43217 8.03683C2.3788 7.28721 2.48736 6.53488 2.75046 5.83092C3.01356 5.12696 3.42506 4.48786 3.957 3.957C4.48786 3.42505 5.12697 3.01356 5.83093 2.75045C6.53489 2.48735 7.28721 2.3788 8.03684 2.43217ZM16.2117 9.88367C16.2817 9.79039 16.3323 9.68407 16.3606 9.57094C16.389 9.45781 16.3944 9.34016 16.3766 9.22491C16.3588 9.10966 16.3181 8.99913 16.257 8.89981C16.1959 8.8005 16.1155 8.7144 16.0206 8.64659C15.9258 8.57878 15.8183 8.53061 15.7045 8.50493C15.5908 8.47925 15.473 8.47657 15.3582 8.49704C15.2434 8.51751 15.1339 8.56073 15.036 8.62414C14.9381 8.68756 14.8539 8.76991 14.7883 8.86633L11.013 14.1513L9.11834 12.2567C8.95247 12.1021 8.73308 12.018 8.50639 12.022C8.27971 12.026 8.06343 12.1178 7.90311 12.2781C7.7428 12.4384 7.65096 12.6547 7.64697 12.8814C7.64297 13.1081 7.72711 13.3275 7.88167 13.4933L10.5067 16.1183C10.5965 16.2081 10.7048 16.2772 10.824 16.3209C10.9432 16.3646 11.0705 16.3819 11.1971 16.3714C11.3236 16.361 11.4464 16.3231 11.5568 16.2605C11.6673 16.1978 11.7628 16.1119 11.8367 16.0087L16.2117 9.88367Z" fill="#BAD4DA"/>
</svg>
